<mxfile host="app.diagrams.net" modified="2023-10-01T04:24:02.413Z" agent="Mozilla/5.0 (Macintosh; Intel Mac OS X 10_15_7) AppleWebKit/537.36 (KHTML, like Gecko) Chrome/115.0.0.0 Safari/537.36" etag="kHCMBZOCZprvKh0NvY9e" version="22.0.0" type="device">
  <diagram name="Page-1" id="55a83fd1-7818-8e21-69c5-c3457e3827bb">
    <mxGraphModel dx="2937" dy="1788" grid="1" gridSize="10" guides="1" tooltips="1" connect="1" arrows="1" fold="1" page="1" pageScale="1" pageWidth="1100" pageHeight="850" background="none" math="0" shadow="0">
      <root>
        <mxCell id="0" />
        <mxCell id="1" parent="0" />
        <mxCell id="bWo1Z_dEaXhv1a9a4Sse-14" value="" style="ellipse;whiteSpace=wrap;html=1;" vertex="1" parent="1">
          <mxGeometry x="330" y="390" width="520" height="440" as="geometry" />
        </mxCell>
        <mxCell id="69ecfefc5c41e42c-18" style="edgeStyle=none;rounded=0;html=1;labelBackgroundColor=none;endArrow=none;strokeWidth=2;fontFamily=Verdana;fontSize=22;entryX=0;entryY=0.75;entryDx=0;entryDy=0;" parent="1" target="bWo1Z_dEaXhv1a9a4Sse-7" edge="1">
          <mxGeometry relative="1" as="geometry">
            <mxPoint x="600" y="575" as="sourcePoint" />
            <mxPoint x="666.7741935483873" y="460" as="targetPoint" />
          </mxGeometry>
        </mxCell>
        <mxCell id="bWo1Z_dEaXhv1a9a4Sse-1" value="" style="ellipse;whiteSpace=wrap;html=1;" vertex="1" parent="1">
          <mxGeometry x="-265" y="400" width="530" height="450" as="geometry" />
        </mxCell>
        <mxCell id="bWo1Z_dEaXhv1a9a4Sse-2" value="PC" style="image;html=1;labelBackgroundColor=#ffffff;image=img/lib/clip_art/computers/Monitor_Tower_128x128.png;rounded=1;shadow=0;comic=0;strokeWidth=2;fontSize=22" vertex="1" parent="1">
          <mxGeometry x="550" y="710" width="80" height="80" as="geometry" />
        </mxCell>
        <mxCell id="bWo1Z_dEaXhv1a9a4Sse-7" value="PC" style="image;html=1;labelBackgroundColor=#ffffff;image=img/lib/clip_art/computers/Monitor_Tower_128x128.png;rounded=1;shadow=0;comic=0;strokeWidth=2;fontSize=22" vertex="1" parent="1">
          <mxGeometry x="660" y="430" width="80" height="80" as="geometry" />
        </mxCell>
        <mxCell id="bWo1Z_dEaXhv1a9a4Sse-8" value="PC" style="image;html=1;labelBackgroundColor=#ffffff;image=img/lib/clip_art/computers/Monitor_Tower_128x128.png;rounded=1;shadow=0;comic=0;strokeWidth=2;fontSize=22" vertex="1" parent="1">
          <mxGeometry x="-170" y="470" width="80" height="80" as="geometry" />
        </mxCell>
        <mxCell id="bWo1Z_dEaXhv1a9a4Sse-11" value="Printer" style="image;html=1;labelBackgroundColor=#ffffff;image=img/lib/clip_art/computers/Printer_128x128.png;rounded=1;shadow=0;comic=0;strokeWidth=2;fontSize=22" vertex="1" parent="1">
          <mxGeometry x="750" y="560" width="80" height="80" as="geometry" />
        </mxCell>
        <mxCell id="bWo1Z_dEaXhv1a9a4Sse-17" value="Laptop" style="image;html=1;labelBackgroundColor=#ffffff;image=img/lib/clip_art/computers/Netbook_128x128.png;rounded=1;shadow=0;comic=0;strokeColor=#000000;strokeWidth=2;fillColor=#FFFFFF;fontSize=22;fontColor=#000000;" vertex="1" parent="1">
          <mxGeometry x="405" y="660" width="80" height="80" as="geometry" />
        </mxCell>
        <mxCell id="bWo1Z_dEaXhv1a9a4Sse-21" value="" style="image;html=1;image=img/lib/clip_art/computers/Printer_Commercial_128x128.png" vertex="1" parent="1">
          <mxGeometry x="340" y="560" width="80" height="80" as="geometry" />
        </mxCell>
        <mxCell id="bWo1Z_dEaXhv1a9a4Sse-26" value="" style="image;html=1;image=img/lib/clip_art/networking/Switch_128x128.png" vertex="1" parent="1">
          <mxGeometry x="540" y="550" width="80" height="80" as="geometry" />
        </mxCell>
        <mxCell id="bWo1Z_dEaXhv1a9a4Sse-28" value="" style="image;html=1;image=img/lib/clip_art/networking/Switch_128x128.png" vertex="1" parent="1">
          <mxGeometry x="-40" y="575" width="80" height="80" as="geometry" />
        </mxCell>
        <mxCell id="bWo1Z_dEaXhv1a9a4Sse-29" value="Tablet" style="image;html=1;labelBackgroundColor=#ffffff;image=img/lib/clip_art/computers/iPad_128x128.png;rounded=1;shadow=0;comic=0;strokeWidth=2;fontSize=22" vertex="1" parent="1">
          <mxGeometry x="160" y="610" width="80" height="80" as="geometry" />
        </mxCell>
        <mxCell id="bWo1Z_dEaXhv1a9a4Sse-30" value="Tablet" style="image;html=1;labelBackgroundColor=#ffffff;image=img/lib/clip_art/computers/iPad_128x128.png;rounded=1;shadow=0;comic=0;strokeWidth=2;fontSize=22" vertex="1" parent="1">
          <mxGeometry x="405" y="460" width="80" height="80" as="geometry" />
        </mxCell>
        <mxCell id="bWo1Z_dEaXhv1a9a4Sse-32" value="&lt;b&gt;Firewall&lt;/b&gt;" style="image;html=1;labelBackgroundColor=#ffffff;image=img/lib/clip_art/networking/Firewall_128x128.png;rounded=1;shadow=0;comic=0;strokeWidth=2;fontSize=22;labelPosition=right;verticalLabelPosition=middle;align=left;verticalAlign=middle;" vertex="1" parent="1">
          <mxGeometry x="540" y="-10" width="80" height="80" as="geometry" />
        </mxCell>
        <mxCell id="bWo1Z_dEaXhv1a9a4Sse-34" value="Internet" style="image;html=1;labelBackgroundColor=#ffffff;image=img/lib/clip_art/networking/Cloud_128x128.png;rounded=1;shadow=0;comic=0;strokeWidth=2;fontSize=22;labelPosition=center;verticalLabelPosition=top;align=center;verticalAlign=bottom;" vertex="1" parent="1">
          <mxGeometry x="505" y="-190" width="150" height="120" as="geometry" />
        </mxCell>
        <mxCell id="bWo1Z_dEaXhv1a9a4Sse-35" value="" style="ellipse;whiteSpace=wrap;html=1;" vertex="1" parent="1">
          <mxGeometry x="910" y="380" width="540" height="460" as="geometry" />
        </mxCell>
        <mxCell id="bWo1Z_dEaXhv1a9a4Sse-36" value="&lt;b&gt;&lt;font style=&quot;font-size: 24px;&quot;&gt;Factory&lt;/font&gt;&lt;/b&gt;" style="text;html=1;strokeColor=none;fillColor=none;align=center;verticalAlign=middle;whiteSpace=wrap;rounded=0;" vertex="1" parent="1">
          <mxGeometry x="-30" y="860" width="60" height="30" as="geometry" />
        </mxCell>
        <mxCell id="bWo1Z_dEaXhv1a9a4Sse-37" value="&lt;b&gt;&lt;font style=&quot;font-size: 24px;&quot;&gt;Security Cameras&lt;/font&gt;&lt;/b&gt;" style="text;html=1;strokeColor=none;fillColor=none;align=center;verticalAlign=middle;whiteSpace=wrap;rounded=0;" vertex="1" parent="1">
          <mxGeometry x="1125" y="860" width="210" height="30" as="geometry" />
        </mxCell>
        <mxCell id="bWo1Z_dEaXhv1a9a4Sse-38" value="&lt;b&gt;&lt;font style=&quot;font-size: 24px;&quot;&gt;Office&lt;/font&gt;&lt;/b&gt;" style="text;html=1;strokeColor=none;fillColor=none;align=center;verticalAlign=middle;whiteSpace=wrap;rounded=0;" vertex="1" parent="1">
          <mxGeometry x="550" y="860" width="60" height="30" as="geometry" />
        </mxCell>
        <mxCell id="bWo1Z_dEaXhv1a9a4Sse-43" value="&lt;b&gt;&lt;font style=&quot;font-size: 24px;&quot;&gt;Network 1&lt;/font&gt;&lt;/b&gt;" style="text;html=1;strokeColor=none;fillColor=none;align=center;verticalAlign=middle;whiteSpace=wrap;rounded=0;" vertex="1" parent="1">
          <mxGeometry x="-75" y="440" width="130" height="30" as="geometry" />
        </mxCell>
        <mxCell id="bWo1Z_dEaXhv1a9a4Sse-46" value="&lt;b&gt;&lt;font style=&quot;font-size: 24px;&quot;&gt;Network 3&lt;/font&gt;&lt;/b&gt;" style="text;html=1;strokeColor=none;fillColor=none;align=center;verticalAlign=middle;whiteSpace=wrap;rounded=0;" vertex="1" parent="1">
          <mxGeometry x="1140" y="400" width="130" height="30" as="geometry" />
        </mxCell>
        <mxCell id="bWo1Z_dEaXhv1a9a4Sse-47" value="&lt;b&gt;&lt;font style=&quot;font-size: 24px;&quot;&gt;Network 2&lt;/font&gt;&lt;/b&gt;" style="text;html=1;strokeColor=none;fillColor=none;align=center;verticalAlign=middle;whiteSpace=wrap;rounded=0;" vertex="1" parent="1">
          <mxGeometry x="490" y="420" width="130" height="30" as="geometry" />
        </mxCell>
        <mxCell id="bWo1Z_dEaXhv1a9a4Sse-48" value="" style="image;html=1;image=img/lib/clip_art/networking/Switch_128x128.png" vertex="1" parent="1">
          <mxGeometry x="1140" y="560" width="80" height="80" as="geometry" />
        </mxCell>
        <mxCell id="69ecfefc5c41e42c-7" value="PC" style="image;html=1;labelBackgroundColor=#ffffff;image=img/lib/clip_art/computers/Workstation_128x128.png;rounded=1;shadow=0;comic=0;strokeWidth=2;fontSize=22" parent="1" vertex="1">
          <mxGeometry x="80" y="710" width="80" height="80" as="geometry" />
        </mxCell>
        <mxCell id="69ecfefc5c41e42c-9" value="Laptop" style="image;html=1;labelBackgroundColor=#ffffff;image=img/lib/clip_art/computers/Netbook_128x128.png;rounded=1;shadow=0;comic=0;strokeColor=#000000;strokeWidth=2;fillColor=#FFFFFF;fontSize=22;fontColor=#000000;" parent="1" vertex="1">
          <mxGeometry x="-50" y="730" width="80" height="80" as="geometry" />
        </mxCell>
        <mxCell id="bWo1Z_dEaXhv1a9a4Sse-5" value="PC" style="image;html=1;labelBackgroundColor=#ffffff;image=img/lib/clip_art/computers/Monitor_Tower_128x128.png;rounded=1;shadow=0;comic=0;strokeWidth=2;fontSize=22" vertex="1" parent="1">
          <mxGeometry x="-240" y="610" width="80" height="80" as="geometry" />
        </mxCell>
        <mxCell id="69ecfefc5c41e42c-8" value="Mobile" style="image;html=1;labelBackgroundColor=#ffffff;image=img/lib/clip_art/telecommunication/iPhone_128x128.png;rounded=1;shadow=0;comic=0;strokeWidth=2;fontSize=22" parent="1" vertex="1">
          <mxGeometry x="-160" y="700" width="80" height="80" as="geometry" />
        </mxCell>
        <mxCell id="bWo1Z_dEaXhv1a9a4Sse-52" value="Mobile" style="image;html=1;labelBackgroundColor=#ffffff;image=img/lib/clip_art/telecommunication/iPhone_128x128.png;rounded=1;shadow=0;comic=0;strokeWidth=2;fontSize=22" vertex="1" parent="1">
          <mxGeometry x="670" y="680" width="80" height="80" as="geometry" />
        </mxCell>
        <mxCell id="bWo1Z_dEaXhv1a9a4Sse-53" value="" style="fontColor=#0066CC;verticalAlign=top;verticalLabelPosition=bottom;labelPosition=center;align=center;html=1;outlineConnect=0;fillColor=#CCCCCC;strokeColor=#6881B3;gradientColor=none;gradientDirection=north;strokeWidth=2;shape=mxgraph.networks.security_camera;" vertex="1" parent="1">
          <mxGeometry x="1170" y="740" width="100" height="75" as="geometry" />
        </mxCell>
        <mxCell id="bWo1Z_dEaXhv1a9a4Sse-55" value="" style="image;points=[];aspect=fixed;html=1;align=center;shadow=0;dashed=0;image=img/lib/allied_telesis/security/Surveillance_Camera_Ceiling.svg;" vertex="1" parent="1">
          <mxGeometry x="1040" y="420" width="52.75" height="50.2" as="geometry" />
        </mxCell>
        <mxCell id="bWo1Z_dEaXhv1a9a4Sse-57" value="" style="fontColor=#0066CC;verticalAlign=top;verticalLabelPosition=bottom;labelPosition=center;align=center;html=1;outlineConnect=0;fillColor=#CCCCCC;strokeColor=#6881B3;gradientColor=none;gradientDirection=north;strokeWidth=2;shape=mxgraph.networks.security_camera;" vertex="1" parent="1">
          <mxGeometry x="980" y="667.5" width="100" height="75" as="geometry" />
        </mxCell>
        <mxCell id="bWo1Z_dEaXhv1a9a4Sse-58" value="" style="fontColor=#0066CC;verticalAlign=top;verticalLabelPosition=bottom;labelPosition=center;align=center;html=1;outlineConnect=0;fillColor=#CCCCCC;strokeColor=#6881B3;gradientColor=none;gradientDirection=north;strokeWidth=2;shape=mxgraph.networks.security_camera;" vertex="1" parent="1">
          <mxGeometry x="1320" y="572.5" width="100" height="75" as="geometry" />
        </mxCell>
        <mxCell id="bWo1Z_dEaXhv1a9a4Sse-59" value="Mobile" style="image;html=1;labelBackgroundColor=#ffffff;image=img/lib/clip_art/telecommunication/iPhone_128x128.png;rounded=1;shadow=0;comic=0;strokeWidth=2;fontSize=22" vertex="1" parent="1">
          <mxGeometry x="70" y="460" width="80" height="80" as="geometry" />
        </mxCell>
        <mxCell id="bWo1Z_dEaXhv1a9a4Sse-13" value="" style="image;html=1;image=img/lib/clip_art/networking/Router_Icon_128x128.png" vertex="1" parent="1">
          <mxGeometry x="-40" y="250" width="80" height="80" as="geometry" />
        </mxCell>
        <mxCell id="bWo1Z_dEaXhv1a9a4Sse-61" value="" style="endArrow=none;html=1;rounded=0;" edge="1" parent="1" target="bWo1Z_dEaXhv1a9a4Sse-13">
          <mxGeometry width="50" height="50" relative="1" as="geometry">
            <mxPoint y="400" as="sourcePoint" />
            <mxPoint x="50" y="350" as="targetPoint" />
            <Array as="points">
              <mxPoint y="340" />
              <mxPoint y="310" />
            </Array>
          </mxGeometry>
        </mxCell>
        <mxCell id="bWo1Z_dEaXhv1a9a4Sse-63" style="edgeStyle=none;rounded=0;html=1;labelBackgroundColor=none;endArrow=none;strokeWidth=2;fontFamily=Verdana;fontSize=22;entryX=0;entryY=0.75;entryDx=0;entryDy=0;exitX=0.484;exitY=0.005;exitDx=0;exitDy=0;exitPerimeter=0;" edge="1" parent="1">
          <mxGeometry relative="1" as="geometry">
            <mxPoint x="580.8400000000003" y="390.0000000000003" as="sourcePoint" />
            <mxPoint x="579.16" y="292.8" as="targetPoint" />
          </mxGeometry>
        </mxCell>
        <mxCell id="bWo1Z_dEaXhv1a9a4Sse-64" value="" style="endArrow=none;html=1;rounded=0;exitX=0.5;exitY=0;exitDx=0;exitDy=0;" edge="1" parent="1" source="bWo1Z_dEaXhv1a9a4Sse-35">
          <mxGeometry width="50" height="50" relative="1" as="geometry">
            <mxPoint x="10" y="410" as="sourcePoint" />
            <mxPoint x="1180" y="300" as="targetPoint" />
          </mxGeometry>
        </mxCell>
        <mxCell id="bWo1Z_dEaXhv1a9a4Sse-65" value="" style="image;html=1;image=img/lib/clip_art/networking/Router_Icon_128x128.png" vertex="1" parent="1">
          <mxGeometry x="1140" y="240" width="80" height="80" as="geometry" />
        </mxCell>
        <mxCell id="bWo1Z_dEaXhv1a9a4Sse-66" value="" style="image;html=1;image=img/lib/clip_art/networking/Router_Icon_128x128.png" vertex="1" parent="1">
          <mxGeometry x="540" y="230" width="80" height="80" as="geometry" />
        </mxCell>
        <mxCell id="bWo1Z_dEaXhv1a9a4Sse-67" value="" style="image;html=1;image=img/lib/clip_art/networking/Router_Icon_128x128.png" vertex="1" parent="1">
          <mxGeometry x="550" y="120" width="80" height="80" as="geometry" />
        </mxCell>
        <mxCell id="bWo1Z_dEaXhv1a9a4Sse-68" value="" style="endArrow=none;html=1;rounded=0;entryX=0;entryY=0.5;entryDx=0;entryDy=0;" edge="1" parent="1" target="bWo1Z_dEaXhv1a9a4Sse-67">
          <mxGeometry width="50" height="50" relative="1" as="geometry">
            <mxPoint y="260" as="sourcePoint" />
            <mxPoint x="50" y="220" as="targetPoint" />
          </mxGeometry>
        </mxCell>
        <mxCell id="bWo1Z_dEaXhv1a9a4Sse-69" value="" style="endArrow=none;html=1;rounded=0;entryX=1;entryY=0.5;entryDx=0;entryDy=0;" edge="1" parent="1" target="bWo1Z_dEaXhv1a9a4Sse-67">
          <mxGeometry width="50" height="50" relative="1" as="geometry">
            <mxPoint x="1170" y="250" as="sourcePoint" />
            <mxPoint x="560" y="170" as="targetPoint" />
          </mxGeometry>
        </mxCell>
        <mxCell id="bWo1Z_dEaXhv1a9a4Sse-70" value="" style="endArrow=none;html=1;rounded=0;" edge="1" parent="1">
          <mxGeometry width="50" height="50" relative="1" as="geometry">
            <mxPoint x="579" y="250" as="sourcePoint" />
            <mxPoint x="579.23" y="200" as="targetPoint" />
            <Array as="points">
              <mxPoint x="579.23" y="210" />
              <mxPoint x="579.23" y="180" />
            </Array>
          </mxGeometry>
        </mxCell>
        <mxCell id="bWo1Z_dEaXhv1a9a4Sse-74" value="" style="endArrow=none;html=1;rounded=0;" edge="1" parent="1">
          <mxGeometry width="50" height="50" relative="1" as="geometry">
            <mxPoint x="20" y="600" as="sourcePoint" />
            <mxPoint x="90" y="500" as="targetPoint" />
          </mxGeometry>
        </mxCell>
        <mxCell id="bWo1Z_dEaXhv1a9a4Sse-75" value="" style="endArrow=none;html=1;rounded=0;" edge="1" parent="1">
          <mxGeometry width="50" height="50" relative="1" as="geometry">
            <mxPoint x="-20" y="740" as="sourcePoint" />
            <mxPoint y="630" as="targetPoint" />
          </mxGeometry>
        </mxCell>
        <mxCell id="bWo1Z_dEaXhv1a9a4Sse-76" value="" style="endArrow=none;html=1;rounded=0;exitX=0.75;exitY=0;exitDx=0;exitDy=0;" edge="1" parent="1" source="69ecfefc5c41e42c-8">
          <mxGeometry width="50" height="50" relative="1" as="geometry">
            <mxPoint x="-80" y="690" as="sourcePoint" />
            <mxPoint x="-26" y="630" as="targetPoint" />
          </mxGeometry>
        </mxCell>
        <mxCell id="bWo1Z_dEaXhv1a9a4Sse-77" value="" style="endArrow=none;html=1;rounded=0;exitX=0.25;exitY=0.313;exitDx=0;exitDy=0;exitPerimeter=0;" edge="1" parent="1" source="bWo1Z_dEaXhv1a9a4Sse-28">
          <mxGeometry width="50" height="50" relative="1" as="geometry">
            <mxPoint x="-157" y="585" as="sourcePoint" />
            <mxPoint x="-103" y="525" as="targetPoint" />
          </mxGeometry>
        </mxCell>
        <mxCell id="bWo1Z_dEaXhv1a9a4Sse-78" value="" style="endArrow=none;html=1;rounded=0;exitX=0.75;exitY=0;exitDx=0;exitDy=0;entryX=0;entryY=0.5;entryDx=0;entryDy=0;" edge="1" parent="1" target="bWo1Z_dEaXhv1a9a4Sse-28">
          <mxGeometry width="50" height="50" relative="1" as="geometry">
            <mxPoint x="-164" y="655" as="sourcePoint" />
            <mxPoint x="-90" y="585" as="targetPoint" />
          </mxGeometry>
        </mxCell>
        <mxCell id="bWo1Z_dEaXhv1a9a4Sse-79" value="" style="endArrow=none;html=1;rounded=0;exitX=0.5;exitY=0;exitDx=0;exitDy=0;" edge="1" parent="1" source="69ecfefc5c41e42c-7">
          <mxGeometry width="50" height="50" relative="1" as="geometry">
            <mxPoint x="22.96" y="710" as="sourcePoint" />
            <mxPoint x="29.997037037036954" y="615" as="targetPoint" />
          </mxGeometry>
        </mxCell>
        <mxCell id="bWo1Z_dEaXhv1a9a4Sse-80" value="" style="endArrow=none;html=1;rounded=0;exitX=0.25;exitY=0.625;exitDx=0;exitDy=0;exitPerimeter=0;" edge="1" parent="1" source="bWo1Z_dEaXhv1a9a4Sse-29">
          <mxGeometry width="50" height="50" relative="1" as="geometry">
            <mxPoint x="120" y="700" as="sourcePoint" />
            <mxPoint x="29.997037037036954" y="605" as="targetPoint" />
          </mxGeometry>
        </mxCell>
        <mxCell id="bWo1Z_dEaXhv1a9a4Sse-81" style="edgeStyle=none;rounded=0;html=1;labelBackgroundColor=none;endArrow=none;strokeWidth=2;fontFamily=Verdana;fontSize=22;entryX=0;entryY=0.5;entryDx=0;entryDy=0;" edge="1" parent="1" target="bWo1Z_dEaXhv1a9a4Sse-26">
          <mxGeometry relative="1" as="geometry">
            <mxPoint x="400" y="610" as="sourcePoint" />
            <mxPoint x="460" y="525" as="targetPoint" />
          </mxGeometry>
        </mxCell>
        <mxCell id="bWo1Z_dEaXhv1a9a4Sse-82" style="edgeStyle=none;rounded=0;html=1;labelBackgroundColor=none;endArrow=none;strokeWidth=2;fontFamily=Verdana;fontSize=22;entryX=0.25;entryY=0.625;entryDx=0;entryDy=0;entryPerimeter=0;" edge="1" parent="1" target="bWo1Z_dEaXhv1a9a4Sse-26">
          <mxGeometry relative="1" as="geometry">
            <mxPoint x="450" y="690" as="sourcePoint" />
            <mxPoint x="510" y="605" as="targetPoint" />
          </mxGeometry>
        </mxCell>
        <mxCell id="bWo1Z_dEaXhv1a9a4Sse-83" style="edgeStyle=none;rounded=0;html=1;labelBackgroundColor=none;endArrow=none;strokeWidth=2;fontFamily=Verdana;fontSize=22;entryX=0;entryY=0.75;entryDx=0;entryDy=0;exitX=0.25;exitY=0.25;exitDx=0;exitDy=0;exitPerimeter=0;" edge="1" parent="1" source="bWo1Z_dEaXhv1a9a4Sse-2">
          <mxGeometry relative="1" as="geometry">
            <mxPoint x="530" y="685" as="sourcePoint" />
            <mxPoint x="590" y="600" as="targetPoint" />
          </mxGeometry>
        </mxCell>
        <mxCell id="bWo1Z_dEaXhv1a9a4Sse-84" style="edgeStyle=none;rounded=0;html=1;labelBackgroundColor=none;endArrow=none;strokeWidth=2;fontFamily=Verdana;fontSize=22;entryX=0;entryY=0.75;entryDx=0;entryDy=0;" edge="1" parent="1">
          <mxGeometry relative="1" as="geometry">
            <mxPoint x="550" y="570" as="sourcePoint" />
            <mxPoint x="465" y="535" as="targetPoint" />
          </mxGeometry>
        </mxCell>
        <mxCell id="bWo1Z_dEaXhv1a9a4Sse-85" style="edgeStyle=none;rounded=0;html=1;labelBackgroundColor=none;endArrow=none;strokeWidth=2;fontFamily=Verdana;fontSize=22;entryX=0;entryY=0.75;entryDx=0;entryDy=0;" edge="1" parent="1" target="bWo1Z_dEaXhv1a9a4Sse-11">
          <mxGeometry relative="1" as="geometry">
            <mxPoint x="610" y="597.5" as="sourcePoint" />
            <mxPoint x="670" y="512.5" as="targetPoint" />
          </mxGeometry>
        </mxCell>
        <mxCell id="bWo1Z_dEaXhv1a9a4Sse-86" style="edgeStyle=none;rounded=0;html=1;labelBackgroundColor=none;endArrow=none;strokeWidth=2;fontFamily=Verdana;fontSize=22;entryX=0.5;entryY=0;entryDx=0;entryDy=0;" edge="1" parent="1" target="bWo1Z_dEaXhv1a9a4Sse-52">
          <mxGeometry relative="1" as="geometry">
            <mxPoint x="590" y="598.75" as="sourcePoint" />
            <mxPoint x="730" y="621.25" as="targetPoint" />
          </mxGeometry>
        </mxCell>
        <mxCell id="bWo1Z_dEaXhv1a9a4Sse-88" style="edgeStyle=none;rounded=0;html=1;labelBackgroundColor=none;endArrow=none;strokeWidth=2;fontFamily=Verdana;fontSize=22;" edge="1" parent="1">
          <mxGeometry relative="1" as="geometry">
            <mxPoint x="1200" y="585" as="sourcePoint" />
            <mxPoint x="1305" y="480" as="targetPoint" />
          </mxGeometry>
        </mxCell>
        <mxCell id="bWo1Z_dEaXhv1a9a4Sse-89" style="edgeStyle=none;rounded=0;html=1;labelBackgroundColor=none;endArrow=none;strokeWidth=2;fontFamily=Verdana;fontSize=22;" edge="1" parent="1">
          <mxGeometry relative="1" as="geometry">
            <mxPoint x="1150" y="580" as="sourcePoint" />
            <mxPoint x="1085" y="457.5" as="targetPoint" />
          </mxGeometry>
        </mxCell>
        <mxCell id="bWo1Z_dEaXhv1a9a4Sse-90" style="edgeStyle=none;rounded=0;html=1;labelBackgroundColor=none;endArrow=none;strokeWidth=2;fontFamily=Verdana;fontSize=22;" edge="1" parent="1" target="bWo1Z_dEaXhv1a9a4Sse-58">
          <mxGeometry relative="1" as="geometry">
            <mxPoint x="1220" y="605" as="sourcePoint" />
            <mxPoint x="1325" y="500" as="targetPoint" />
          </mxGeometry>
        </mxCell>
        <mxCell id="bWo1Z_dEaXhv1a9a4Sse-91" style="edgeStyle=none;rounded=0;html=1;labelBackgroundColor=none;endArrow=none;strokeWidth=2;fontFamily=Verdana;fontSize=22;exitX=0;exitY=0.5;exitDx=0;exitDy=0;" edge="1" parent="1" source="bWo1Z_dEaXhv1a9a4Sse-48">
          <mxGeometry relative="1" as="geometry">
            <mxPoint x="1065" y="690" as="sourcePoint" />
            <mxPoint x="1000" y="567.5" as="targetPoint" />
          </mxGeometry>
        </mxCell>
        <mxCell id="bWo1Z_dEaXhv1a9a4Sse-92" style="edgeStyle=none;rounded=0;html=1;labelBackgroundColor=none;endArrow=none;strokeWidth=2;fontFamily=Verdana;fontSize=22;exitX=0;exitY=0.5;exitDx=0;exitDy=0;entryX=0.88;entryY=0.5;entryDx=0;entryDy=0;entryPerimeter=0;" edge="1" parent="1" target="bWo1Z_dEaXhv1a9a4Sse-57">
          <mxGeometry relative="1" as="geometry">
            <mxPoint x="1150" y="610" as="sourcePoint" />
            <mxPoint x="1010" y="577.5" as="targetPoint" />
          </mxGeometry>
        </mxCell>
        <mxCell id="bWo1Z_dEaXhv1a9a4Sse-93" style="edgeStyle=none;rounded=0;html=1;labelBackgroundColor=none;endArrow=none;strokeWidth=2;fontFamily=Verdana;fontSize=22;exitX=0.3;exitY=0;exitDx=0;exitDy=0;exitPerimeter=0;" edge="1" parent="1" source="bWo1Z_dEaXhv1a9a4Sse-53">
          <mxGeometry relative="1" as="geometry">
            <mxPoint x="1310" y="647.5" as="sourcePoint" />
            <mxPoint x="1170" y="615" as="targetPoint" />
          </mxGeometry>
        </mxCell>
        <mxCell id="bWo1Z_dEaXhv1a9a4Sse-94" style="edgeStyle=none;rounded=0;html=1;labelBackgroundColor=none;endArrow=none;strokeWidth=2;fontFamily=Verdana;fontSize=22;entryX=0;entryY=0.75;entryDx=0;entryDy=0;exitX=0.484;exitY=0.005;exitDx=0;exitDy=0;exitPerimeter=0;" edge="1" parent="1">
          <mxGeometry relative="1" as="geometry">
            <mxPoint x="580.8400000000003" y="147.20000000000027" as="sourcePoint" />
            <mxPoint x="579.16" y="50" as="targetPoint" />
          </mxGeometry>
        </mxCell>
        <mxCell id="bWo1Z_dEaXhv1a9a4Sse-95" style="edgeStyle=none;rounded=0;html=1;labelBackgroundColor=none;endArrow=none;strokeWidth=2;fontFamily=Verdana;fontSize=22;entryX=0;entryY=0.75;entryDx=0;entryDy=0;" edge="1" parent="1">
          <mxGeometry relative="1" as="geometry">
            <mxPoint x="579" y="-10" as="sourcePoint" />
            <mxPoint x="579.16" y="-90" as="targetPoint" />
          </mxGeometry>
        </mxCell>
        <mxCell id="bWo1Z_dEaXhv1a9a4Sse-96" value="&lt;b&gt;&lt;font style=&quot;font-size: 24px;&quot;&gt;Cloud&lt;/font&gt;&lt;/b&gt;" style="text;html=1;strokeColor=none;fillColor=none;align=center;verticalAlign=middle;whiteSpace=wrap;rounded=0;" vertex="1" parent="1">
          <mxGeometry x="515" y="-160" width="130" height="30" as="geometry" />
        </mxCell>
        <mxCell id="bWo1Z_dEaXhv1a9a4Sse-98" value="&lt;b&gt;&lt;font style=&quot;font-size: 24px;&quot;&gt;Router&lt;/font&gt;&lt;/b&gt;" style="text;html=1;strokeColor=none;fillColor=none;align=center;verticalAlign=middle;whiteSpace=wrap;rounded=0;" vertex="1" parent="1">
          <mxGeometry x="-10" y="310" width="130" height="30" as="geometry" />
        </mxCell>
        <mxCell id="bWo1Z_dEaXhv1a9a4Sse-99" value="&lt;b&gt;&lt;font style=&quot;font-size: 24px;&quot;&gt;Router&lt;/font&gt;&lt;/b&gt;" style="text;html=1;strokeColor=none;fillColor=none;align=center;verticalAlign=middle;whiteSpace=wrap;rounded=0;" vertex="1" parent="1">
          <mxGeometry x="1180" y="300" width="130" height="30" as="geometry" />
        </mxCell>
        <mxCell id="bWo1Z_dEaXhv1a9a4Sse-100" value="&lt;b&gt;&lt;font style=&quot;font-size: 24px;&quot;&gt;Router&lt;/font&gt;&lt;/b&gt;" style="text;html=1;strokeColor=none;fillColor=none;align=center;verticalAlign=middle;whiteSpace=wrap;rounded=0;" vertex="1" parent="1">
          <mxGeometry x="580" y="280" width="130" height="30" as="geometry" />
        </mxCell>
        <mxCell id="bWo1Z_dEaXhv1a9a4Sse-101" value="&lt;b&gt;&lt;font style=&quot;font-size: 24px;&quot;&gt;Router&lt;/font&gt;&lt;/b&gt;" style="text;html=1;strokeColor=none;fillColor=none;align=center;verticalAlign=middle;whiteSpace=wrap;rounded=0;" vertex="1" parent="1">
          <mxGeometry x="580" y="180" width="130" height="30" as="geometry" />
        </mxCell>
        <mxCell id="bWo1Z_dEaXhv1a9a4Sse-102" value="&lt;b&gt;&lt;font style=&quot;font-size: 24px;&quot;&gt;Switch&lt;/font&gt;&lt;/b&gt;" style="text;html=1;strokeColor=none;fillColor=none;align=center;verticalAlign=middle;whiteSpace=wrap;rounded=0;" vertex="1" parent="1">
          <mxGeometry x="-50" y="640" width="130" height="30" as="geometry" />
        </mxCell>
        <mxCell id="bWo1Z_dEaXhv1a9a4Sse-104" value="&lt;b&gt;&lt;font style=&quot;font-size: 24px;&quot;&gt;Switch&lt;/font&gt;&lt;/b&gt;" style="text;html=1;strokeColor=none;fillColor=none;align=center;verticalAlign=middle;whiteSpace=wrap;rounded=0;" vertex="1" parent="1">
          <mxGeometry x="1160" y="617.5" width="130" height="30" as="geometry" />
        </mxCell>
        <mxCell id="bWo1Z_dEaXhv1a9a4Sse-105" value="&lt;b&gt;&lt;font style=&quot;font-size: 24px;&quot;&gt;Switch&lt;/font&gt;&lt;/b&gt;" style="text;html=1;strokeColor=none;fillColor=none;align=center;verticalAlign=middle;whiteSpace=wrap;rounded=0;" vertex="1" parent="1">
          <mxGeometry x="525" y="617.5" width="130" height="30" as="geometry" />
        </mxCell>
        <mxCell id="bWo1Z_dEaXhv1a9a4Sse-106" value="&lt;font style=&quot;font-size: 14px;&quot;&gt;Surveillance Camera&lt;/font&gt;" style="text;html=1;strokeColor=none;fillColor=none;align=center;verticalAlign=middle;whiteSpace=wrap;rounded=0;" vertex="1" parent="1">
          <mxGeometry x="950" y="470.2" width="150" height="30" as="geometry" />
        </mxCell>
        <mxCell id="bWo1Z_dEaXhv1a9a4Sse-107" value="&lt;font style=&quot;font-size: 14px;&quot;&gt;Security Camera&lt;/font&gt;" style="text;html=1;strokeColor=none;fillColor=none;align=center;verticalAlign=middle;whiteSpace=wrap;rounded=0;" vertex="1" parent="1">
          <mxGeometry x="1000" y="730" width="150" height="30" as="geometry" />
        </mxCell>
        <mxCell id="bWo1Z_dEaXhv1a9a4Sse-108" value="&lt;font style=&quot;font-size: 14px;&quot;&gt;Security Camera&lt;/font&gt;" style="text;html=1;strokeColor=none;fillColor=none;align=center;verticalAlign=middle;whiteSpace=wrap;rounded=0;" vertex="1" parent="1">
          <mxGeometry x="1120" y="810" width="150" height="30" as="geometry" />
        </mxCell>
        <mxCell id="bWo1Z_dEaXhv1a9a4Sse-109" value="&lt;font style=&quot;font-size: 14px;&quot;&gt;Security Camera&lt;/font&gt;" style="text;html=1;strokeColor=none;fillColor=none;align=center;verticalAlign=middle;whiteSpace=wrap;rounded=0;" vertex="1" parent="1">
          <mxGeometry x="1295" y="650" width="150" height="30" as="geometry" />
        </mxCell>
        <mxCell id="bWo1Z_dEaXhv1a9a4Sse-111" value="" style="fontColor=#0066CC;verticalAlign=top;verticalLabelPosition=bottom;labelPosition=center;align=center;html=1;outlineConnect=0;fillColor=#CCCCCC;strokeColor=#6881B3;gradientColor=none;gradientDirection=north;strokeWidth=2;shape=mxgraph.networks.security_camera;" vertex="1" parent="1">
          <mxGeometry x="930" y="517.5" width="100" height="75" as="geometry" />
        </mxCell>
        <mxCell id="bWo1Z_dEaXhv1a9a4Sse-112" value="" style="fontColor=#0066CC;verticalAlign=top;verticalLabelPosition=bottom;labelPosition=center;align=center;html=1;outlineConnect=0;fillColor=#CCCCCC;strokeColor=#6881B3;gradientColor=none;gradientDirection=north;strokeWidth=2;shape=mxgraph.networks.security_camera;" vertex="1" parent="1">
          <mxGeometry x="1295" y="440" width="100" height="75" as="geometry" />
        </mxCell>
        <mxCell id="bWo1Z_dEaXhv1a9a4Sse-113" value="&lt;font style=&quot;font-size: 14px;&quot;&gt;Security Camera&lt;/font&gt;" style="text;html=1;strokeColor=none;fillColor=none;align=center;verticalAlign=middle;whiteSpace=wrap;rounded=0;" vertex="1" parent="1">
          <mxGeometry x="930" y="587.5" width="150" height="30" as="geometry" />
        </mxCell>
        <mxCell id="bWo1Z_dEaXhv1a9a4Sse-114" value="&lt;font style=&quot;font-size: 14px;&quot;&gt;Security Camera&lt;/font&gt;" style="text;html=1;strokeColor=none;fillColor=none;align=center;verticalAlign=middle;whiteSpace=wrap;rounded=0;" vertex="1" parent="1">
          <mxGeometry x="1295" y="515" width="150" height="30" as="geometry" />
        </mxCell>
      </root>
    </mxGraphModel>
  </diagram>
</mxfile>
